<?xml version="1.0" standalone="no"?>
<!DOCTYPE svg PUBLIC "-//W3C//DTD SVG 20010904//EN"
 "http://www.w3.org/TR/2001/REC-SVG-20010904/DTD/svg10.dtd">
<svg version="1.0" xmlns="http://www.w3.org/2000/svg"
 width="250.000000pt" height="250.000000pt" viewBox="0 0 250.000000 250.000000"
 preserveAspectRatio="xMidYMid meet">
<metadata>
Created by potrace 1.14, written by Peter Selinger 2001-2017
</metadata>
<g transform="translate(0.000000,250.000000) scale(0.100000,-0.100000)"
fill="#000000" stroke="none">
<path d="M405 2010 c-3 -5 -1 -10 4 -10 6 0 11 5 11 10 0 6 -2 10 -4 10 -3 0
-8 -4 -11 -10z"/>
<path d="M545 2010 c3 -5 -9 -13 -27 -19 l-33 -9 37 1 c38 0 59 21 32 31 -8 3
-12 1 -9 -4z"/>
<path d="M652 2008 c3 -7 12 -14 22 -14 14 -2 14 -1 -1 3 -16 5 -16 6 2 14 19
7 18 8 -3 8 -15 1 -22 -4 -20 -11z"/>
<path d="M748 2013 c7 -3 16 -2 19 1 4 3 -2 6 -13 5 -11 0 -14 -3 -6 -6z"/>
<path d="M1986 2008 c5 -8 -3 -9 -29 -5 -21 3 -37 2 -37 -3 0 -5 -23 -8 -51
-6 -33 3 -47 1 -38 -5 15 -9 180 -4 224 7 14 3 25 11 25 16 0 6 -8 7 -17 3
-35 -15 -63 -17 -63 -6 0 6 -5 11 -11 11 -5 0 -7 -5 -3 -12z"/>
<path d="M478 2003 c7 -3 16 -2 19 1 4 3 -2 6 -13 5 -11 0 -14 -3 -6 -6z"/>
<path d="M785 2000 c3 -5 8 -10 11 -10 2 0 4 5 4 10 0 6 -5 10 -11 10 -5 0 -7
-4 -4 -10z"/>
<path d="M444 1991 c4 -5 0 -12 -6 -14 -7 -3 -3 -6 9 -6 27 -1 39 15 17 23
-22 8 -26 8 -20 -3z"/>
<path d="M590 1990 c8 -5 24 -10 34 -10 26 0 18 6 -19 14 -22 5 -26 4 -15 -4z"/>
<path d="M745 1982 c6 -5 21 -13 35 -17 17 -5 22 -4 15 3 -5 5 -21 13 -35 17
-17 5 -22 4 -15 -3z"/>
<path d="M557 1973 c-4 -3 -26 -7 -49 -9 -42 -3 -124 -23 -162 -39 -12 -5 -17
-5 -13 1 3 6 -9 11 -26 12 -31 3 -31 2 -12 -13 15 -12 16 -18 7 -22 -7 -3 -26
-16 -41 -29 -16 -13 -35 -22 -43 -19 -17 7 -63 -39 -54 -54 4 -5 -4 -21 -17
-35 -18 -19 -30 -23 -48 -19 -22 6 -23 5 -9 -12 13 -17 13 -18 0 -10 -12 6
-13 5 -2 -6 15 -16 16 -33 0 -23 -7 4 -8 3 -4 -4 10 -16 -13 -55 -28 -49 -7 3
-20 -3 -29 -13 -13 -16 -13 -19 -1 -24 8 -3 14 -1 14 4 0 6 5 10 10 10 16 0
12 -21 -8 -37 -9 -8 -11 -12 -4 -8 8 4 12 -1 12 -14 0 -27 -17 -27 -25 -1 -7
21 -25 28 -25 10 0 -5 5 -10 11 -10 6 0 8 -9 4 -20 -4 -14 -2 -20 7 -18 10 2
15 -22 20 -97 8 -104 25 -225 27 -190 1 17 4 15 16 -9 9 -16 13 -36 10 -44 -6
-15 13 -57 22 -48 3 3 0 12 -7 21 -7 9 -11 17 -8 20 5 5 87 -96 88 -110 2 -14
31 -45 43 -45 6 0 2 7 -9 15 -10 8 -14 15 -8 15 6 0 17 -7 24 -15 7 -8 17 -15
22 -15 5 0 14 -5 21 -11 7 -5 27 -19 46 -30 18 -11 31 -23 28 -26 -9 -9 17
-31 30 -26 7 3 13 1 14 -3 0 -5 3 -21 5 -36 3 -20 0 -28 -10 -28 -8 0 -17 6
-19 13 -3 6 -5 -4 -6 -23 0 -26 2 -30 8 -16 13 34 18 4 13 -86 -5 -98 -21
-119 -24 -30 l-1 57 -7 -65 c-4 -36 -3 -69 2 -75 5 -5 8 -3 8 5 1 28 31 -41
33 -76 1 -18 7 -34 12 -34 6 0 19 -14 29 -31 11 -18 14 -29 8 -25 -6 4 -10 -1
-9 -12 1 -14 7 -17 25 -14 17 3 23 1 18 -7 -5 -7 1 -11 14 -11 15 0 20 -5 17
-14 -4 -11 -1 -13 10 -9 12 5 15 2 10 -10 -4 -11 -1 -17 8 -17 8 0 15 7 15 15
0 23 16 18 28 -9 8 -19 8 -26 -1 -30 -7 -3 0 -3 14 0 15 3 30 1 33 -5 8 -12
96 -15 96 -3 0 4 -21 7 -47 7 -36 0 -47 4 -45 14 2 8 -3 11 -12 8 -14 -6 -33
9 -24 18 2 2 28 -2 58 -10 63 -17 140 -20 140 -5 0 5 -7 6 -17 3 -34 -13 -1
17 35 33 20 8 54 28 74 44 42 34 63 41 30 10 -14 -13 -19 -26 -14 -38 6 -15 7
-14 10 4 2 12 12 30 23 40 20 18 27 40 9 29 -5 -3 -7 0 -4 8 3 9 14 13 27 10
21 -4 22 -4 3 11 -11 9 -18 17 -15 20 10 8 54 30 60 29 3 -1 4 13 1 30 -2 24
-1 28 7 17 8 -11 9 -9 7 13 -1 15 -6 30 -11 35 -4 4 -5 1 -1 -5 4 -7 2 -13 -3
-13 -6 0 -11 -12 -11 -27 0 -33 -16 -61 -27 -50 -4 5 1 30 10 58 10 27 15 55
11 62 -6 9 -4 9 7 1 26 -20 147 -44 236 -46 l88 -2 -100 -6 -100 -6 100 -2
c55 -1 107 3 115 8 13 9 13 10 0 11 -11 0 96 36 118 39 1 0 2 -18 2 -40 0 -27
-4 -40 -14 -40 -10 0 -13 -14 -13 -50 0 -28 2 -50 4 -50 2 0 11 17 20 38 l16
37 18 -55 c11 -30 20 -62 21 -71 1 -10 8 -15 16 -12 11 5 11 7 0 14 -7 5 -9 9
-4 9 4 0 21 -11 38 -25 16 -14 26 -25 22 -25 -4 0 -15 7 -25 16 -17 15 -18 15
-16 -5 0 -11 3 -18 5 -16 2 2 17 -1 33 -5 16 -5 29 -5 29 0 0 4 13 3 29 -3 17
-6 28 -13 26 -16 -2 -4 9 -6 23 -7 40 -2 92 -11 98 -17 4 -3 -18 -4 -47 -2
-39 2 -48 1 -31 -6 12 -4 22 -14 22 -21 0 -9 3 -10 8 -2 11 18 81 27 98 13 10
-8 14 -8 14 0 0 6 -12 14 -27 17 -24 7 -25 8 -8 14 11 4 26 3 33 -3 9 -7 17
-5 26 9 8 10 17 16 21 12 13 -12 112 76 134 121 29 56 42 166 31 252 -12 91
-12 111 0 84 8 -17 9 -16 9 9 1 21 -3 27 -14 22 -9 -3 -15 0 -15 10 0 8 4 12
10 9 5 -3 18 -1 27 5 14 9 14 10 2 7 -9 -3 -22 -1 -30 4 -10 6 -11 9 -1 10 16
2 23 4 45 13 9 5 27 6 38 3 12 -3 18 -3 15 0 -9 10 14 32 28 27 7 -3 19 2 26
11 7 8 17 15 22 15 5 0 19 11 32 25 13 13 26 22 29 19 8 -8 -42 -54 -59 -54
-7 0 -16 -5 -20 -12 -5 -8 -2 -9 9 -5 10 4 24 10 34 14 11 4 14 3 9 -5 -4 -7
-2 -12 4 -12 7 0 10 6 7 14 -3 8 5 24 19 37 13 12 24 27 24 33 0 6 -5 4 -11
-4 -9 -13 -10 -13 -6 0 2 8 14 14 25 13 21 -3 68 44 56 56 -3 3 -14 -5 -24
-19 -16 -20 -20 -22 -20 -7 0 9 5 17 12 17 6 0 8 3 5 7 -4 3 5 16 18 29 14 13
25 32 25 43 0 10 5 21 11 23 13 4 49 140 49 185 0 20 4 32 10 28 6 -4 10 15
10 49 0 30 -4 57 -9 60 -5 4 -7 -12 -4 -36 3 -24 3 -41 1 -38 -3 3 -9 26 -12
53 -6 41 -5 47 11 47 15 0 15 2 3 9 -8 6 -17 8 -21 5 -4 -2 -9 8 -12 22 -3 18
1 28 13 32 16 7 16 9 -2 37 l-20 30 6 -27 c3 -15 2 -29 -3 -33 -11 -6 -25 31
-16 45 3 5 0 7 -8 4 -17 -6 -31 36 -17 50 14 14 12 33 -4 33 -8 0 -12 -8 -9
-21 4 -20 3 -20 -16 3 -24 26 -27 43 -8 40 25 -3 38 1 32 11 -3 5 -13 6 -22 3
-12 -5 -15 -2 -10 10 3 9 2 19 -2 22 -5 2 -12 -7 -15 -20 -4 -14 -11 -23 -17
-19 -6 3 -8 12 -5 20 3 8 0 11 -8 8 -7 -3 -19 2 -26 11 -7 8 -19 15 -26 15 -8
0 -14 4 -14 9 0 11 -114 67 -154 76 -23 5 -27 8 -15 15 9 6 0 8 -26 5 -30 -4
-35 -3 -20 4 19 9 19 10 -2 10 -13 1 -23 -2 -23 -6 0 -5 -40 -9 -90 -10 -49
-1 -104 -9 -122 -16 -18 -8 -43 -13 -55 -12 -12 1 -20 -2 -17 -6 2 -4 -5 -10
-16 -14 -11 -3 -20 -11 -20 -17 0 -6 -3 -8 -6 -5 -4 3 -16 0 -28 -8 -11 -8
-24 -15 -28 -15 -10 0 -6 43 6 60 10 13 9 13 -6 2 -11 -9 -16 -24 -14 -41 2
-20 -5 -35 -22 -52 -14 -13 -23 -17 -20 -9 4 10 -1 15 -16 16 -18 1 -22 -4
-21 -26 0 -22 3 -26 12 -18 9 7 13 7 13 0 0 -11 -41 -38 -48 -33 -2 2 -7 -1
-10 -5 -4 -4 -1 -4 7 1 9 5 12 3 9 -6 -3 -8 -10 -13 -16 -12 -6 2 -9 -3 -6
-11 3 -8 1 -17 -5 -21 -17 -10 -25 23 -11 40 7 9 11 18 8 20 -9 9 -26 -19 -32
-55 -4 -22 -3 -28 2 -16 8 19 9 19 16 1 4 -12 2 -22 -8 -27 -8 -5 -13 -15 -9
-23 3 -9 1 -21 -5 -28 -10 -12 -28 -85 -24 -99 1 -5 -10 -8 -24 -8 -15 0 -23
-4 -19 -11 4 -6 14 -8 24 -4 10 4 12 3 6 -3 -5 -5 -60 -6 -121 -3 -61 3 -131
3 -155 0 -46 -7 -58 -4 -45 9 4 4 47 7 94 7 56 0 94 5 107 13 14 9 15 12 3 8
-14 -4 -139 -9 -192 -7 -17 1 -17 3 4 21 17 15 19 20 7 20 -8 0 -17 -6 -20
-12 -2 -7 -10 8 -17 35 -7 26 -16 50 -21 53 -15 9 -10 21 11 27 11 3 20 11 20
19 0 10 -2 11 -9 0 -11 -19 -33 -11 -52 18 -14 22 -14 28 -2 47 12 19 12 21
-1 19 -9 -1 -19 -6 -23 -11 -4 -4 -2 -5 6 0 10 6 12 4 7 -4 -12 -19 -46 17
-46 48 0 20 -2 23 -10 11 -9 -14 -11 -12 -14 20 0 8 -10 15 -21 15 -25 0 -47
14 -40 25 8 12 -6 41 -16 34 -5 -3 -9 0 -9 5 0 6 -5 11 -12 11 -6 0 -1 -11 12
-25 28 -30 22 -31 -27 -5 -21 11 -44 20 -52 20 -11 0 -12 3 -3 12 8 8 15 8 26
-1 8 -7 17 -8 20 -3 6 10 -83 37 -92 27 -3 -3 2 -5 11 -5 10 0 17 -4 17 -9 0
-9 -47 3 -83 21 -9 4 -28 6 -41 2 -13 -3 -33 -1 -44 5 -11 6 -22 8 -25 4z
m157 -93 c147 -50 244 -178 254 -336 l5 -73 -44 -11 c-126 -34 -289 -147 -370
-256 l-39 -54 -51 20 c-75 28 -127 68 -175 132 -135 184 -74 451 128 554 29
15 67 31 83 35 58 14 151 9 209 -11z m1408 -12 c79 -36 142 -98 181 -177 30
-61 32 -72 32 -171 0 -98 -2 -109 -32 -165 -59 -115 -176 -194 -297 -201 l-61
-4 -45 60 c-56 75 -144 149 -232 195 -65 34 -66 36 -72 83 -23 167 95 342 267
398 67 22 190 13 259 -18z m-1923 -42 c-13 -14 -26 -22 -29 -19 -5 4 37 43 47
43 3 0 -5 -11 -18 -24z m731 14 c0 -5 -4 -10 -10 -10 -5 0 -10 5 -10 10 0 6 5
10 10 10 6 0 10 -4 10 -10z m395 -389 c30 -7 34 -9 15 -11 l-25 -2 25 -8 c14
-4 36 -8 50 -8 16 0 19 2 8 5 -10 2 -18 9 -18 15 0 5 7 7 16 4 9 -3 19 -6 24
-6 4 0 10 -9 13 -20 4 -16 0 -20 -21 -20 -21 0 -23 -3 -14 -12 10 -10 17 -10
34 1 17 11 22 11 29 -1 7 -10 9 -10 9 2 0 13 1 13 10 0 8 -13 14 -8 12 11 -2
14 78 2 97 -15 13 -12 21 -14 21 -7 0 7 5 9 10 6 6 -4 8 -11 4 -16 -3 -6 0 -9
7 -8 25 5 59 -20 52 -39 -4 -14 -2 -13 10 3 10 12 16 15 17 7 0 -7 4 -11 9 -8
5 3 17 -5 27 -19 10 -13 23 -21 28 -17 6 3 5 -1 -2 -10 -9 -12 -10 -18 -2 -23
6 -4 9 -13 7 -19 -3 -7 1 -13 9 -13 8 0 14 9 14 19 0 11 -4 16 -10 13 -5 -3
-10 -1 -10 5 0 18 24 6 36 -18 6 -12 13 -20 16 -17 3 3 10 -6 16 -20 7 -15 8
-27 2 -30 -6 -4 -10 -13 -10 -21 0 -8 4 -13 9 -9 5 3 12 -3 14 -12 2 -10 3 -6
1 10 -2 15 1 27 6 27 9 0 12 -8 9 -27 0 -3 6 -10 15 -15 9 -5 13 -15 9 -26 -3
-9 -3 -14 2 -10 12 11 63 -93 71 -143 4 -24 11 -47 16 -50 14 -9 23 -86 21
-184 -2 -133 -2 -135 -18 -135 -11 0 -16 12 -17 43 l-1 42 -4 -42 c-3 -32 -9
-43 -21 -44 -15 -1 -14 -2 1 -6 12 -3 16 -10 13 -20 -6 -14 -4 -14 11 -2 14
12 14 9 -3 -19 -10 -18 -29 -43 -41 -54 l-23 -21 13 26 c6 14 16 23 21 20 5
-4 6 1 3 11 -4 10 -7 22 -7 27 0 6 -5 7 -11 4 -6 -4 -8 -13 -6 -19 11 -27 -32
-53 -101 -63 -40 -6 -43 -8 -22 -14 18 -5 8 -7 -33 -8 -51 -1 -60 2 -64 19 -3
11 -11 20 -19 20 -8 0 -11 -6 -7 -16 5 -15 3 -15 -20 1 -29 19 -36 30 -12 22
8 -4 17 -1 21 5 5 8 -2 9 -23 5 -39 -8 -53 7 -46 48 4 27 2 33 -17 38 -21 5
-22 10 -17 79 2 40 2 58 0 39 -5 -41 -28 -69 -37 -45 -3 9 -6 127 -6 262 0
136 -4 242 -8 235 -5 -8 -15 0 -30 23 -12 19 -18 34 -13 34 14 0 32 -26 23
-35 -4 -5 -2 -5 5 -2 6 4 10 15 9 25 -2 13 -12 17 -40 15 -24 -1 -36 2 -35 10
3 27 -1 42 -9 30 -12 -19 -55 -4 -49 18 3 12 0 16 -9 12 -8 -3 -11 -9 -8 -14
8 -13 -10 -11 -25 4 -11 10 -12 9 -6 -2 5 -9 4 -12 -2 -8 -10 6 -137 9 -184 4
-15 -1 -34 -8 -42 -16 -10 -7 -25 -10 -38 -6 -17 6 -21 4 -17 -7 4 -9 -6 -22
-24 -34 -52 -34 -68 -80 -70 -201 -1 -82 -3 -97 -8 -63 -6 39 -7 34 -8 -35 -1
-55 1 -75 8 -65 7 10 9 -3 8 -45 l-1 -60 -7 45 c-7 44 -7 44 -8 9 -1 -20 -5
-52 -8 -70 -4 -26 -3 -30 5 -19 11 16 11 16 -4 -83 -4 -24 -10 -35 -17 -31 -7
4 -8 3 -4 -5 4 -6 1 -18 -7 -26 -9 -8 -18 -20 -20 -27 -4 -9 -8 -9 -14 -3 -9
12 -38 13 -49 2 -7 -7 9 -11 34 -8 14 2 14 -1 6 -23 -5 -12 -10 -13 -26 -5
-15 8 -24 7 -37 -5 -12 -11 -30 -15 -54 -12 -29 4 -35 2 -25 -7 6 -7 25 -12
42 -10 29 2 30 2 6 -6 -32 -11 -133 -14 -126 -3 2 4 -11 6 -30 4 -39 -5 -45 9
-11 24 12 6 17 9 10 7 -7 -1 -15 2 -18 6 -4 8 -55 22 -55 15 0 -1 7 -10 16
-18 14 -15 14 -16 0 -16 -9 0 -16 4 -16 10 0 5 -10 19 -23 32 -24 24 -55 84
-37 73 6 -4 10 7 9 27 -1 30 -2 31 -8 8 -12 -43 -20 -7 -20 91 0 133 -1 130 8
125 4 -3 7 -40 5 -83 l-3 -78 9 60 c11 84 11 156 0 130 -13 -29 -12 2 1 48 10
36 11 38 24 20 14 -17 14 -17 15 3 0 11 5 25 12 32 9 9 9 12 0 12 -7 0 -12 -5
-12 -11 0 -5 -4 -8 -9 -5 -5 3 -7 16 -3 28 3 12 7 17 10 10 5 -17 32 -15 32 3
0 8 3 15 8 15 4 0 7 14 8 30 1 24 -1 28 -13 19 -11 -9 -12 -8 -7 5 3 9 11 16
18 16 6 0 4 5 -4 10 -10 6 -11 10 -2 10 6 0 12 4 12 10 0 11 22 40 62 82 14
15 25 28 22 28 -2 0 13 16 35 35 21 19 44 35 50 35 6 0 11 8 11 17 0 15 2 14
16 -3 8 -10 13 -13 9 -6 -3 6 -2 12 2 12 5 0 15 -6 22 -12 11 -10 13 -10 7 0
-4 6 -2 12 3 12 6 0 11 7 11 15 0 8 6 15 14 15 8 0 18 5 22 12 5 8 2 9 -9 5
-39 -15 -13 4 39 27 65 30 104 37 122 23 7 -5 15 -7 19 -3 3 3 1 6 -5 6 -7 0
-12 4 -12 8 0 5 6 9 13 9 6 0 31 3 55 7 44 8 57 1 21 -12 -14 -6 3 -8 47 -9
65 0 67 13 4 18 -21 1 -19 3 10 9 48 10 127 10 175 1z m144 -25 c11 -14 6 -15
-27 -7 -4 1 8 21 12 21 2 0 9 -6 15 -14z m-674 -86 c-3 -5 -10 -10 -16 -10 -5
0 -9 5 -9 10 0 6 7 10 16 10 8 0 12 -4 9 -10z m-265 -305 c0 -8 -4 -15 -10
-15 -5 0 -7 7 -4 15 4 8 8 15 10 15 2 0 4 -7 4 -15z m-110 -102 c0 -10 -4 -14
-8 -8 -4 6 -11 13 -16 18 -5 4 -2 7 7 7 10 0 17 -8 17 -17z m595 -13 c-3 -5
-1 -11 5 -15 5 -3 10 -1 10 5 0 6 5 8 10 5 6 -4 7 -11 4 -17 -5 -7 0 -9 15 -5
14 3 24 0 28 -9 3 -8 10 -14 17 -13 26 3 37 -2 30 -13 -5 -8 0 -7 11 2 11 9
16 10 11 3 -4 -7 -4 -13 1 -14 4 0 16 -2 26 -4 9 -2 15 1 11 6 -3 5 -11 6 -17
3 -7 -4 -9 -4 -5 1 9 9 118 13 118 3 0 -4 -19 -9 -42 -11 -41 -3 -41 -4 9 -5
45 -2 54 1 64 20 8 14 14 18 17 10 5 -15 38 -16 48 -1 4 8 -1 9 -17 4 -21 -6
-21 -4 5 14 23 15 34 17 49 9 14 -7 17 -7 13 1 -4 6 -1 11 6 11 9 0 9 3 -2 10
-13 8 -12 10 3 10 14 0 17 -10 18 -62 2 -119 2 -120 -86 -143 -119 -33 -345
-8 -345 38 0 8 4 7 10 -3 6 -9 10 -10 10 -3 0 17 -23 29 -28 15 -2 -7 -7 -12
-11 -12 -9 0 -8 39 3 92 5 20 4 43 0 50 -12 19 -14 39 -3 32 5 -3 7 -9 4 -14z
m575 -385 c0 -5 -9 1 -20 15 -11 14 -20 30 -20 35 0 6 9 -1 20 -15 11 -14 20
-29 20 -35z m-765 -66 c-4 -5 -13 -9 -22 -9 -13 0 -13 3 -3 15 13 15 35 11 25
-6z m1065 -9 c-8 -5 -24 -9 -35 -9 -16 1 -16 2 5 9 35 11 48 11 30 0z"/>
<path d="M965 1412 c-28 -10 -30 -32 -2 -31 12 0 16 3 9 6 -10 4 -9 8 5 19 20
15 18 15 -12 6z"/>
<path d="M1078 1403 c6 -2 18 -2 25 0 6 3 1 5 -13 5 -14 0 -19 -2 -12 -5z"/>
<path d="M893 1390 c-13 -5 -23 -15 -22 -22 0 -10 2 -10 6 0 2 6 13 12 23 12
10 0 22 5 25 10 7 12 -2 12 -32 0z"/>
<path d="M1008 1393 c6 -2 18 -2 25 0 6 3 1 5 -13 5 -14 0 -19 -2 -12 -5z"/>
<path d="M1540 1390 c8 -5 20 -10 25 -10 6 0 3 5 -5 10 -8 5 -19 10 -25 10 -5
0 -3 -5 5 -10z"/>
<path d="M866 1315 c4 -8 8 -15 10 -15 2 0 4 7 4 15 0 8 -4 15 -10 15 -5 0 -7
-7 -4 -15z"/>
<path d="M1605 1320 c-3 -5 -2 -10 4 -10 5 0 13 5 16 10 3 6 2 10 -4 10 -5 0
-13 -4 -16 -10z"/>
<path d="M1710 1310 c-9 -6 -10 -10 -3 -10 6 0 15 5 18 10 8 12 4 12 -15 0z"/>
<path d="M1092 1290 c1 -19 -4 -27 -17 -27 -9 0 -14 6 -11 14 4 8 1 11 -5 8
-5 -4 -8 -12 -6 -18 5 -16 35 -17 48 -1 6 8 23 14 38 14 14 0 31 4 38 8 6 4
-10 7 -37 7 -27 0 -48 -2 -48 -5z"/>
<path d="M1200 1290 c0 -5 7 -10 16 -10 8 0 12 5 9 10 -3 6 -10 10 -16 10 -5
0 -9 -4 -9 -10z"/>
<path d="M1260 1290 c-13 -8 -12 -10 3 -10 9 0 17 5 17 10 0 12 -1 12 -20 0z"/>
<path d="M1295 1290 c-7 -12 2 -12 30 0 19 8 19 9 -2 9 -12 1 -25 -3 -28 -9z"/>
<path d="M688 1257 c-22 -29 -23 -33 -7 -33 9 0 15 4 12 9 -3 4 3 17 13 28 9
10 15 21 13 24 -3 2 -16 -11 -31 -28z"/>
<path d="M987 1209 c7 -7 15 -10 18 -7 3 3 -2 9 -12 12 -14 6 -15 5 -6 -5z"/>
<path d="M615 1190 c-3 -5 -3 -10 1 -10 4 0 -1 -9 -11 -20 -10 -11 -13 -20 -8
-20 15 0 45 48 34 55 -5 3 -12 1 -16 -5z"/>
<path d="M960 1180 c0 -11 2 -20 4 -20 2 0 6 9 9 20 3 11 1 20 -4 20 -5 0 -9
-9 -9 -20z"/>
<path d="M916 1105 c7 -44 11 -51 20 -42 4 3 -1 23 -10 44 l-16 38 6 -40z"/>
<path d="M902 1080 c0 -14 2 -19 5 -12 2 6 2 18 0 25 -3 6 -5 1 -5 -13z"/>
<path d="M1848 1063 c7 -3 16 -2 19 1 4 3 -2 6 -13 5 -11 0 -14 -3 -6 -6z"/>
<path d="M1563 1020 c0 -25 2 -35 4 -22 2 12 2 32 0 45 -2 12 -4 2 -4 -23z"/>
<path d="M1925 1009 c-10 -15 3 -25 16 -12 7 7 7 13 1 17 -6 3 -14 1 -17 -5z"/>
<path d="M551 984 c0 -11 3 -14 6 -6 3 7 2 16 -1 19 -3 4 -6 -2 -5 -13z"/>
<path d="M906 947 c-5 -21 -6 -41 -2 -44 12 -12 17 5 14 43 l-4 39 -8 -38z"/>
<path d="M1534 860 c0 -69 1 -97 3 -62 2 34 2 90 0 125 -2 34 -3 6 -3 -63z"/>
<path d="M530 940 c0 -5 5 -10 10 -10 6 0 10 5 10 10 0 6 -4 10 -10 10 -5 0
-10 -4 -10 -10z"/>
<path d="M1932 930 c14 -22 24 -19 15 5 -4 8 -11 15 -17 15 -6 0 -6 -7 2 -20z"/>
<path d="M2002 765 c0 -16 2 -22 5 -12 2 9 2 23 0 30 -3 6 -5 -1 -5 -18z"/>
<path d="M2003 685 c0 -22 2 -30 4 -17 2 12 2 30 0 40 -3 9 -5 -1 -4 -23z"/>
<path d="M896 701 c-4 -7 -5 -15 -2 -18 9 -9 19 4 14 18 -4 11 -6 11 -12 0z"/>
<path d="M885 650 c-3 -6 -4 -19 0 -30 7 -22 35 -16 35 7 0 10 -6 13 -16 9
-12 -4 -15 -2 -10 9 6 17 0 20 -9 5z"/>
<path d="M1577 634 c-11 -11 -8 -26 3 -19 6 3 10 1 10 -6 0 -7 3 -10 6 -6 3 3
2 13 -3 22 -5 8 -12 12 -16 9z"/>
<path d="M520 569 c0 -5 5 -7 10 -4 6 3 10 8 10 11 0 2 -4 4 -10 4 -5 0 -10
-5 -10 -11z"/>
<path d="M491 553 c-1 -12 4 -25 10 -28 14 -9 27 4 13 13 -6 4 -14 14 -17 22
-4 10 -6 8 -6 -7z"/>
<path d="M533 545 c-9 -25 4 -29 17 -6 7 15 7 21 0 21 -6 0 -13 -7 -17 -15z"/>
<path d="M1760 485 c0 -8 4 -15 10 -15 5 0 7 7 4 15 -4 8 -8 15 -10 15 -2 0
-4 -7 -4 -15z"/>
<path d="M1731 474 c0 -11 3 -14 6 -6 3 7 2 16 -1 19 -3 4 -6 -2 -5 -13z"/>
<path d="M1390 855 c-14 -8 -20 -14 -14 -15 5 0 19 7 30 15 24 18 16 19 -16 0z"/>
<path d="M1046 831 c-4 -5 7 -12 24 -16 31 -7 42 -25 15 -25 -8 0 -15 -4 -15
-10 0 -14 12 -12 35 6 17 13 18 16 5 24 -8 5 -21 10 -27 10 -7 0 -13 5 -13 10
0 13 -17 13 -24 1z"/>
<path d="M1410 831 c0 -5 7 -12 16 -15 24 -9 28 -7 14 9 -14 17 -30 20 -30 6z"/>
<path d="M1168 823 c6 -2 18 -2 25 0 6 3 1 5 -13 5 -14 0 -19 -2 -12 -5z"/>
<path d="M1035 800 c3 -5 8 -10 11 -10 2 0 4 5 4 10 0 6 -5 10 -11 10 -5 0 -7
-4 -4 -10z"/>
<path d="M1432 791 c-11 -7 -11 -9 0 -14 9 -3 15 1 15 9 0 8 -1 14 -1 14 -1 0
-7 -4 -14 -9z"/>
<path d="M1105 760 c3 -5 8 -10 11 -10 2 0 4 5 4 10 0 6 -5 10 -11 10 -5 0 -7
-4 -4 -10z"/>
<path d="M1085 740 c27 -12 43 -12 25 0 -8 5 -22 9 -30 9 -10 0 -8 -3 5 -9z"/>
<path d="M1143 728 c16 -10 142 -9 192 1 28 6 5 8 -82 7 -66 0 -116 -4 -110
-8z"/>
<path d="M688 1973 c7 -3 16 -2 19 1 4 3 -2 6 -13 5 -11 0 -14 -3 -6 -6z"/>
<path d="M1645 1929 c-4 -5 -3 -9 2 -9 4 0 1 -4 -7 -10 -8 -5 -12 -11 -9 -14
3 -3 14 2 25 12 11 10 26 16 34 14 8 -3 12 -2 9 2 -11 11 -48 15 -54 5z"/>
<path d="M2157 1929 c7 -7 15 -10 18 -7 3 3 -2 9 -12 12 -14 6 -15 5 -6 -5z"/>
<path d="M2190 1920 c0 -8 15 -16 34 -19 6 -1 11 4 12 11 1 7 -9 14 -22 14
-13 1 -24 -2 -24 -6z"/>
<path d="M243 1897 c0 -12 1 -16 4 -9 3 6 8 10 13 7 4 -3 13 2 20 10 9 10 9
15 1 15 -6 0 -11 -5 -11 -11 0 -8 -4 -8 -13 -1 -10 8 -13 6 -14 -11z"/>
<path d="M120 1765 c0 -8 2 -15 4 -15 2 0 6 7 10 15 3 8 1 15 -4 15 -6 0 -10
-7 -10 -15z"/>
<path d="M1026 1717 c3 -10 9 -15 12 -12 3 3 0 11 -7 18 -10 9 -11 8 -5 -6z"/>
<path d="M1098 1618 c-10 -12 -17 -29 -17 -38 1 -11 2 -11 6 3 2 9 10 17 17
17 6 0 12 9 13 20 2 25 2 25 -19 -2z"/>
<path d="M1382 1609 c-1 -9 -5 -32 -8 -50 -5 -26 -4 -31 5 -23 7 7 11 28 8 50
-2 22 -4 32 -5 23z"/>
<path d="M1313 1513 c9 -2 25 -2 35 0 9 3 1 5 -18 5 -19 0 -27 -2 -17 -5z"/>
<path d="M1 1474 c0 -11 3 -14 6 -6 3 7 2 16 -1 19 -3 4 -6 -2 -5 -13z"/>
<path d="M10 1415 c0 -8 5 -15 10 -15 6 0 10 7 10 15 0 8 -4 15 -10 15 -5 0
-10 -7 -10 -15z"/>
<path d="M2472 1390 c0 -19 2 -27 5 -17 2 9 2 25 0 35 -3 9 -5 1 -5 -18z"/>
<path d="M4 1366 c-3 -8 -1 -23 5 -33 9 -15 10 -13 11 15 0 34 -7 42 -16 18z"/>
<path d="M2472 1310 c0 -14 2 -19 5 -12 2 6 2 18 0 25 -3 6 -5 1 -5 -13z"/>
<path d="M23 1276 c5 -16 27 -19 27 -3 0 7 -7 14 -15 14 -9 0 -14 -5 -12 -11z"/>
<path d="M2456 1264 c-9 -24 -7 -34 7 -28 7 2 13 13 13 24 0 24 -11 26 -20 4z"/>
<path d="M7 1223 c7 -2 19 -2 26 0 6 3 1 5 -13 5 -14 0 -19 -2 -13 -5z"/>
<path d="M81 1134 c0 -11 3 -14 6 -6 3 7 2 16 -1 19 -3 4 -6 -2 -5 -13z"/>
<path d="M138 1103 c6 -2 12 -13 12 -24 0 -21 15 -25 26 -7 4 7 3 8 -4 4 -8
-5 -12 0 -12 13 0 14 -6 21 -17 20 -11 0 -13 -3 -5 -6z"/>
<path d="M85 1090 c-3 -5 -2 -10 4 -10 5 0 13 5 16 10 3 6 2 10 -4 10 -5 0
-13 -4 -16 -10z"/>
<path d="M88 1063 c7 -3 16 -2 19 1 4 3 -2 6 -13 5 -11 0 -14 -3 -6 -6z"/>
<path d="M170 990 c0 -5 7 -7 15 -4 8 4 15 8 15 10 0 2 -7 4 -15 4 -8 0 -15
-4 -15 -10z"/>
<path d="M268 983 c7 -3 16 -2 19 1 4 3 -2 6 -13 5 -11 0 -14 -3 -6 -6z"/>
<path d="M320 960 c0 -5 5 -10 11 -10 5 0 7 5 4 10 -3 6 -8 10 -11 10 -2 0 -4
-4 -4 -10z"/>
<path d="M325 920 c-3 -5 -2 -10 4 -10 5 0 13 5 16 10 3 6 2 10 -4 10 -5 0
-13 -4 -16 -10z"/>
<path d="M2120 910 c-9 -6 -10 -10 -3 -10 6 0 15 5 18 10 8 12 4 12 -15 0z"/>
<path d="M341 804 c0 -11 3 -14 6 -6 3 7 2 16 -1 19 -3 4 -6 -2 -5 -13z"/>
<path d="M1430 676 c0 -2 7 -6 15 -10 8 -3 15 -1 15 4 0 6 -7 10 -15 10 -8 0
-15 -2 -15 -4z"/>
<path d="M1070 663 c14 -3 28 -10 32 -16 4 -6 10 -8 15 -4 11 12 -18 27 -47
25 l-25 -1 25 -4z"/>
<path d="M1120 618 c0 -4 37 -7 83 -7 92 1 86 6 -15 11 -38 2 -68 0 -68 -4z"/>
<path d="M1325 620 c-3 -5 3 -10 14 -10 12 0 21 5 21 10 0 6 -6 10 -14 10 -8
0 -18 -4 -21 -10z"/>
<path d="M1338 593 c7 -3 16 -2 19 1 4 3 -2 6 -13 5 -11 0 -14 -3 -6 -6z"/>
<path d="M2071 584 c0 -11 3 -14 6 -6 3 7 2 16 -1 19 -3 4 -6 -2 -5 -13z"/>
<path d="M1010 550 c0 -5 7 -10 15 -10 8 0 15 5 15 10 0 6 -7 10 -15 10 -8 0
-15 -4 -15 -10z"/>
<path d="M2065 549 c-4 -6 -5 -12 -2 -15 2 -3 7 2 10 11 7 17 1 20 -8 4z"/>
<path d="M2042 508 c-7 -7 -12 -18 -12 -25 0 -7 -7 -13 -15 -13 -8 0 -15 -4
-15 -10 0 -5 -12 -16 -27 -24 -16 -8 -23 -15 -18 -15 6 -1 17 3 25 9 9 6 17 5
22 -3 4 -6 10 -8 15 -4 4 5 1 12 -6 16 -11 7 -9 11 7 20 21 11 47 49 40 57 -3
2 -10 -2 -16 -8z"/>
<path d="M414 503 c4 -7 3 -13 -1 -13 -5 0 -9 -9 -9 -19 0 -14 4 -17 12 -10
13 11 13 34 -1 46 -4 4 -5 2 -1 -4z"/>
<path d="M940 455 c-7 -9 -11 -17 -9 -20 3 -2 10 5 17 15 14 24 10 26 -8 5z"/>
<path d="M878 423 c7 -3 16 -2 19 1 4 3 -2 6 -13 5 -11 0 -14 -3 -6 -6z"/>
<path d="M822 398 c-17 -17 -15 -28 5 -28 9 0 13 3 10 7 -4 3 -2 12 4 20 14
16 -3 17 -19 1z"/>
<path d="M1650 376 c0 -2 7 -6 15 -10 8 -3 15 -1 15 4 0 6 -7 10 -15 10 -8 0
-15 -2 -15 -4z"/>
<path d="M1902 361 c-11 -7 -11 -9 2 -14 10 -4 16 -1 16 8 0 17 -1 17 -18 6z"/>
<path d="M848 353 c7 -3 16 -2 19 1 4 3 -2 6 -13 5 -11 0 -14 -3 -6 -6z"/>
</g>
</svg>
